<?xml version="1.0" encoding="utf-8" standalone="no"?>
<!DOCTYPE svg PUBLIC "-//W3C//DTD SVG 1.1//EN"
  "http://www.w3.org/Graphics/SVG/1.1/DTD/svg11.dtd">
<svg xmlns:xlink="http://www.w3.org/1999/xlink" width="752.296094pt" height="566.983437pt" viewBox="0 0 752.296094 566.983437" xmlns="http://www.w3.org/2000/svg" version="1.1">
 <metadata>
  <rdf:RDF xmlns:dc="http://purl.org/dc/elements/1.1/" xmlns:cc="http://creativecommons.org/ns#" xmlns:rdf="http://www.w3.org/1999/02/22-rdf-syntax-ns#">
   <cc:Work>
    <dc:type rdf:resource="http://purl.org/dc/dcmitype/StillImage"/>
    <dc:date>2025-05-20T14:31:43.565130</dc:date>
    <dc:format>image/svg+xml</dc:format>
    <dc:creator>
     <cc:Agent>
      <dc:title>Matplotlib v3.10.3, https://matplotlib.org/</dc:title>
     </cc:Agent>
    </dc:creator>
   </cc:Work>
  </rdf:RDF>
 </metadata>
 <defs>
  <style type="text/css">*{stroke-linejoin: round; stroke-linecap: butt}</style>
 </defs>
 <g id="figure_1">
  <g id="patch_1">
   <path d="M 0 566.983437 
L 752.296094 566.983437 
L 752.296094 0 
L 0 0 
z
" style="fill: #ffffff"/>
  </g>
  <g id="axes_1">
   <g id="patch_2">
    <path d="M 234.477812 521.397812 
L 704.107813 521.397812 
L 704.107813 27.837812 
L 234.477812 27.837812 
z
" style="fill: #ffffff"/>
   </g>
   <g id="patch_3">
    <path d="M 234.477812 30.305612 
L 681.744479 30.305612 
L 681.744479 50.048012 
L 234.477812 50.048012 
z
" clip-path="url(#pe887a263df)" style="fill: #170e15"/>
   </g>
   <g id="patch_4">
    <path d="M 234.477812 54.983612 
L 668.231353 54.983612 
L 668.231353 74.726012 
L 234.477812 74.726012 
z
" clip-path="url(#pe887a263df)" style="fill: #231826"/>
   </g>
   <g id="patch_5">
    <path d="M 234.477812 79.661612 
L 664.525009 79.661612 
L 664.525009 99.404012 
L 234.477812 99.404012 
z
" clip-path="url(#pe887a263df)" style="fill: #2e2237"/>
   </g>
   <g id="patch_6">
    <path d="M 234.477812 104.339612 
L 661.093304 104.339612 
L 661.093304 124.082012 
L 234.477812 124.082012 
z
" clip-path="url(#pe887a263df)" style="fill: #382d4a"/>
   </g>
   <g id="patch_7">
    <path d="M 234.477812 129.017612 
L 656.426082 129.017612 
L 656.426082 148.760012 
L 234.477812 148.760012 
z
" clip-path="url(#pe887a263df)" style="fill: #40385e"/>
   </g>
   <g id="patch_8">
    <path d="M 234.477812 153.695612 
L 655.212293 153.695612 
L 655.212293 173.438012 
L 234.477812 173.438012 
z
" clip-path="url(#pe887a263df)" style="fill: #474473"/>
   </g>
   <g id="patch_9">
    <path d="M 234.477812 178.373612 
L 619.876864 178.373612 
L 619.876864 198.116012 
L 234.477812 198.116012 
z
" clip-path="url(#pe887a263df)" style="fill: #495084"/>
   </g>
   <g id="patch_10">
    <path d="M 234.477812 203.051612 
L 609.759004 203.051612 
L 609.759004 222.794012 
L 234.477812 222.794012 
z
" clip-path="url(#pe887a263df)" style="fill: #475c8d"/>
   </g>
   <g id="patch_11">
    <path d="M 234.477812 227.729612 
L 596.562308 227.729612 
L 596.562308 247.472012 
L 234.477812 247.472012 
z
" clip-path="url(#pe887a263df)" style="fill: #446791"/>
   </g>
   <g id="patch_12">
    <path d="M 234.477812 252.407612 
L 590.304308 252.407612 
L 590.304308 272.150012 
L 234.477812 272.150012 
z
" clip-path="url(#pe887a263df)" style="fill: #437194"/>
   </g>
   <g id="patch_13">
    <path d="M 234.477812 277.085612 
L 530.865269 277.085612 
L 530.865269 296.828012 
L 234.477812 296.828012 
z
" clip-path="url(#pe887a263df)" style="fill: #427c96"/>
   </g>
   <g id="patch_14">
    <path d="M 234.477812 301.763612 
L 530.528099 301.763612 
L 530.528099 321.506012 
L 234.477812 321.506012 
z
" clip-path="url(#pe887a263df)" style="fill: #428799"/>
   </g>
   <g id="patch_15">
    <path d="M 234.477812 326.441612 
L 509.186403 326.441612 
L 509.186403 346.184012 
L 234.477812 346.184012 
z
" clip-path="url(#pe887a263df)" style="fill: #43919b"/>
   </g>
   <g id="patch_16">
    <path d="M 234.477812 351.119612 
L 505.326084 351.119612 
L 505.326084 370.862012 
L 234.477812 370.862012 
z
" clip-path="url(#pe887a263df)" style="fill: #479c9e"/>
   </g>
   <g id="patch_17">
    <path d="M 234.477812 375.797612 
L 505.326084 375.797612 
L 505.326084 395.540012 
L 234.477812 395.540012 
z
" clip-path="url(#pe887a263df)" style="fill: #4fa8a1"/>
   </g>
   <g id="patch_18">
    <path d="M 234.477812 400.475612 
L 483.857083 400.475612 
L 483.857083 420.218012 
L 234.477812 420.218012 
z
" clip-path="url(#pe887a263df)" style="fill: #5db7a4"/>
   </g>
   <g id="patch_19">
    <path d="M 234.477812 425.153612 
L 460.298149 425.153612 
L 460.298149 444.896012 
L 234.477812 444.896012 
z
" clip-path="url(#pe887a263df)" style="fill: #75c4a9"/>
   </g>
   <g id="patch_20">
    <path d="M 234.477812 449.831612 
L 454.293224 449.831612 
L 454.293224 469.574012 
L 234.477812 469.574012 
z
" clip-path="url(#pe887a263df)" style="fill: #95d0b2"/>
   </g>
   <g id="patch_21">
    <path d="M 234.477812 474.509612 
L 450.822627 474.509612 
L 450.822627 494.252012 
L 234.477812 494.252012 
z
" clip-path="url(#pe887a263df)" style="fill: #b2dbc0"/>
   </g>
   <g id="patch_22">
    <path d="M 234.477812 499.187612 
L 447.727371 499.187612 
L 447.727371 518.930012 
L 234.477812 518.930012 
z
" clip-path="url(#pe887a263df)" style="fill: #cbe6d3"/>
   </g>
   <g id="matplotlib.axis_1">
    <g id="xtick_1">
     <g id="line2d_1">
      <defs>
       <path id="ma5baaf5348" d="M 0 0 
L 0 3.5 
" style="stroke: #000000; stroke-width: 0.8"/>
      </defs>
      <g>
       <use xlink:href="#ma5baaf5348" x="234.477812" y="521.397812" style="stroke: #000000; stroke-width: 0.8"/>
      </g>
     </g>
     <g id="text_1">
      <!-- 0.0 -->
      <g transform="translate(226.52625 535.99625) scale(0.1 -0.1)">
       <defs>
        <path id="DejaVuSans-30" d="M 2034 4250 
Q 1547 4250 1301 3770 
Q 1056 3291 1056 2328 
Q 1056 1369 1301 889 
Q 1547 409 2034 409 
Q 2525 409 2770 889 
Q 3016 1369 3016 2328 
Q 3016 3291 2770 3770 
Q 2525 4250 2034 4250 
z
M 2034 4750 
Q 2819 4750 3233 4129 
Q 3647 3509 3647 2328 
Q 3647 1150 3233 529 
Q 2819 -91 2034 -91 
Q 1250 -91 836 529 
Q 422 1150 422 2328 
Q 422 3509 836 4129 
Q 1250 4750 2034 4750 
z
" transform="scale(0.015625)"/>
        <path id="DejaVuSans-2e" d="M 684 794 
L 1344 794 
L 1344 0 
L 684 0 
L 684 794 
z
" transform="scale(0.015625)"/>
       </defs>
       <use xlink:href="#DejaVuSans-30"/>
       <use xlink:href="#DejaVuSans-2e" transform="translate(63.623047 0)"/>
       <use xlink:href="#DejaVuSans-30" transform="translate(95.410156 0)"/>
      </g>
     </g>
    </g>
    <g id="xtick_2">
     <g id="line2d_2">
      <g>
       <use xlink:href="#ma5baaf5348" x="335.567939" y="521.397812" style="stroke: #000000; stroke-width: 0.8"/>
      </g>
     </g>
     <g id="text_2">
      <!-- 0.2 -->
      <g transform="translate(327.616376 535.99625) scale(0.1 -0.1)">
       <defs>
        <path id="DejaVuSans-32" d="M 1228 531 
L 3431 531 
L 3431 0 
L 469 0 
L 469 531 
Q 828 903 1448 1529 
Q 2069 2156 2228 2338 
Q 2531 2678 2651 2914 
Q 2772 3150 2772 3378 
Q 2772 3750 2511 3984 
Q 2250 4219 1831 4219 
Q 1534 4219 1204 4116 
Q 875 4013 500 3803 
L 500 4441 
Q 881 4594 1212 4672 
Q 1544 4750 1819 4750 
Q 2544 4750 2975 4387 
Q 3406 4025 3406 3419 
Q 3406 3131 3298 2873 
Q 3191 2616 2906 2266 
Q 2828 2175 2409 1742 
Q 1991 1309 1228 531 
z
" transform="scale(0.015625)"/>
       </defs>
       <use xlink:href="#DejaVuSans-30"/>
       <use xlink:href="#DejaVuSans-2e" transform="translate(63.623047 0)"/>
       <use xlink:href="#DejaVuSans-32" transform="translate(95.410156 0)"/>
      </g>
     </g>
    </g>
    <g id="xtick_3">
     <g id="line2d_3">
      <g>
       <use xlink:href="#ma5baaf5348" x="436.658065" y="521.397812" style="stroke: #000000; stroke-width: 0.8"/>
      </g>
     </g>
     <g id="text_3">
      <!-- 0.4 -->
      <g transform="translate(428.706502 535.99625) scale(0.1 -0.1)">
       <defs>
        <path id="DejaVuSans-34" d="M 2419 4116 
L 825 1625 
L 2419 1625 
L 2419 4116 
z
M 2253 4666 
L 3047 4666 
L 3047 1625 
L 3713 1625 
L 3713 1100 
L 3047 1100 
L 3047 0 
L 2419 0 
L 2419 1100 
L 313 1100 
L 313 1709 
L 2253 4666 
z
" transform="scale(0.015625)"/>
       </defs>
       <use xlink:href="#DejaVuSans-30"/>
       <use xlink:href="#DejaVuSans-2e" transform="translate(63.623047 0)"/>
       <use xlink:href="#DejaVuSans-34" transform="translate(95.410156 0)"/>
      </g>
     </g>
    </g>
    <g id="xtick_4">
     <g id="line2d_4">
      <g>
       <use xlink:href="#ma5baaf5348" x="537.748191" y="521.397812" style="stroke: #000000; stroke-width: 0.8"/>
      </g>
     </g>
     <g id="text_4">
      <!-- 0.6 -->
      <g transform="translate(529.796628 535.99625) scale(0.1 -0.1)">
       <defs>
        <path id="DejaVuSans-36" d="M 2113 2584 
Q 1688 2584 1439 2293 
Q 1191 2003 1191 1497 
Q 1191 994 1439 701 
Q 1688 409 2113 409 
Q 2538 409 2786 701 
Q 3034 994 3034 1497 
Q 3034 2003 2786 2293 
Q 2538 2584 2113 2584 
z
M 3366 4563 
L 3366 3988 
Q 3128 4100 2886 4159 
Q 2644 4219 2406 4219 
Q 1781 4219 1451 3797 
Q 1122 3375 1075 2522 
Q 1259 2794 1537 2939 
Q 1816 3084 2150 3084 
Q 2853 3084 3261 2657 
Q 3669 2231 3669 1497 
Q 3669 778 3244 343 
Q 2819 -91 2113 -91 
Q 1303 -91 875 529 
Q 447 1150 447 2328 
Q 447 3434 972 4092 
Q 1497 4750 2381 4750 
Q 2619 4750 2861 4703 
Q 3103 4656 3366 4563 
z
" transform="scale(0.015625)"/>
       </defs>
       <use xlink:href="#DejaVuSans-30"/>
       <use xlink:href="#DejaVuSans-2e" transform="translate(63.623047 0)"/>
       <use xlink:href="#DejaVuSans-36" transform="translate(95.410156 0)"/>
      </g>
     </g>
    </g>
    <g id="xtick_5">
     <g id="line2d_5">
      <g>
       <use xlink:href="#ma5baaf5348" x="638.838317" y="521.397812" style="stroke: #000000; stroke-width: 0.8"/>
      </g>
     </g>
     <g id="text_5">
      <!-- 0.8 -->
      <g transform="translate(630.886755 535.99625) scale(0.1 -0.1)">
       <defs>
        <path id="DejaVuSans-38" d="M 2034 2216 
Q 1584 2216 1326 1975 
Q 1069 1734 1069 1313 
Q 1069 891 1326 650 
Q 1584 409 2034 409 
Q 2484 409 2743 651 
Q 3003 894 3003 1313 
Q 3003 1734 2745 1975 
Q 2488 2216 2034 2216 
z
M 1403 2484 
Q 997 2584 770 2862 
Q 544 3141 544 3541 
Q 544 4100 942 4425 
Q 1341 4750 2034 4750 
Q 2731 4750 3128 4425 
Q 3525 4100 3525 3541 
Q 3525 3141 3298 2862 
Q 3072 2584 2669 2484 
Q 3125 2378 3379 2068 
Q 3634 1759 3634 1313 
Q 3634 634 3220 271 
Q 2806 -91 2034 -91 
Q 1263 -91 848 271 
Q 434 634 434 1313 
Q 434 1759 690 2068 
Q 947 2378 1403 2484 
z
M 1172 3481 
Q 1172 3119 1398 2916 
Q 1625 2713 2034 2713 
Q 2441 2713 2670 2916 
Q 2900 3119 2900 3481 
Q 2900 3844 2670 4047 
Q 2441 4250 2034 4250 
Q 1625 4250 1398 4047 
Q 1172 3844 1172 3481 
z
" transform="scale(0.015625)"/>
       </defs>
       <use xlink:href="#DejaVuSans-30"/>
       <use xlink:href="#DejaVuSans-2e" transform="translate(63.623047 0)"/>
       <use xlink:href="#DejaVuSans-38" transform="translate(95.410156 0)"/>
      </g>
     </g>
    </g>
    <g id="text_6">
     <!-- Average Allele Frequency -->
     <g transform="translate(383.263125 557.194062) scale(0.12 -0.12)">
      <defs>
       <path id="DejaVuSans-Bold-41" d="M 3419 850 
L 1538 850 
L 1241 0 
L 31 0 
L 1759 4666 
L 3194 4666 
L 4922 0 
L 3713 0 
L 3419 850 
z
M 1838 1716 
L 3116 1716 
L 2478 3572 
L 1838 1716 
z
" transform="scale(0.015625)"/>
       <path id="DejaVuSans-Bold-76" d="M 97 3500 
L 1216 3500 
L 2088 1081 
L 2956 3500 
L 4078 3500 
L 2700 0 
L 1472 0 
L 97 3500 
z
" transform="scale(0.015625)"/>
       <path id="DejaVuSans-Bold-65" d="M 4031 1759 
L 4031 1441 
L 1416 1441 
Q 1456 1047 1700 850 
Q 1944 653 2381 653 
Q 2734 653 3104 758 
Q 3475 863 3866 1075 
L 3866 213 
Q 3469 63 3072 -14 
Q 2675 -91 2278 -91 
Q 1328 -91 801 392 
Q 275 875 275 1747 
Q 275 2603 792 3093 
Q 1309 3584 2216 3584 
Q 3041 3584 3536 3087 
Q 4031 2591 4031 1759 
z
M 2881 2131 
Q 2881 2450 2695 2645 
Q 2509 2841 2209 2841 
Q 1884 2841 1681 2658 
Q 1478 2475 1428 2131 
L 2881 2131 
z
" transform="scale(0.015625)"/>
       <path id="DejaVuSans-Bold-72" d="M 3138 2547 
Q 2991 2616 2845 2648 
Q 2700 2681 2553 2681 
Q 2122 2681 1889 2404 
Q 1656 2128 1656 1613 
L 1656 0 
L 538 0 
L 538 3500 
L 1656 3500 
L 1656 2925 
Q 1872 3269 2151 3426 
Q 2431 3584 2822 3584 
Q 2878 3584 2943 3579 
Q 3009 3575 3134 3559 
L 3138 2547 
z
" transform="scale(0.015625)"/>
       <path id="DejaVuSans-Bold-61" d="M 2106 1575 
Q 1756 1575 1579 1456 
Q 1403 1338 1403 1106 
Q 1403 894 1545 773 
Q 1688 653 1941 653 
Q 2256 653 2472 879 
Q 2688 1106 2688 1447 
L 2688 1575 
L 2106 1575 
z
M 3816 1997 
L 3816 0 
L 2688 0 
L 2688 519 
Q 2463 200 2181 54 
Q 1900 -91 1497 -91 
Q 953 -91 614 226 
Q 275 544 275 1050 
Q 275 1666 698 1953 
Q 1122 2241 2028 2241 
L 2688 2241 
L 2688 2328 
Q 2688 2594 2478 2717 
Q 2269 2841 1825 2841 
Q 1466 2841 1156 2769 
Q 847 2697 581 2553 
L 581 3406 
Q 941 3494 1303 3539 
Q 1666 3584 2028 3584 
Q 2975 3584 3395 3211 
Q 3816 2838 3816 1997 
z
" transform="scale(0.015625)"/>
       <path id="DejaVuSans-Bold-67" d="M 2919 594 
Q 2688 288 2409 144 
Q 2131 0 1766 0 
Q 1125 0 706 504 
Q 288 1009 288 1791 
Q 288 2575 706 3076 
Q 1125 3578 1766 3578 
Q 2131 3578 2409 3434 
Q 2688 3291 2919 2981 
L 2919 3500 
L 4044 3500 
L 4044 353 
Q 4044 -491 3511 -936 
Q 2978 -1381 1966 -1381 
Q 1638 -1381 1331 -1331 
Q 1025 -1281 716 -1178 
L 716 -306 
Q 1009 -475 1290 -558 
Q 1572 -641 1856 -641 
Q 2406 -641 2662 -400 
Q 2919 -159 2919 353 
L 2919 594 
z
M 2181 2772 
Q 1834 2772 1640 2515 
Q 1447 2259 1447 1791 
Q 1447 1309 1634 1061 
Q 1822 813 2181 813 
Q 2531 813 2725 1069 
Q 2919 1325 2919 1791 
Q 2919 2259 2725 2515 
Q 2531 2772 2181 2772 
z
" transform="scale(0.015625)"/>
       <path id="DejaVuSans-Bold-20" transform="scale(0.015625)"/>
       <path id="DejaVuSans-Bold-6c" d="M 538 4863 
L 1656 4863 
L 1656 0 
L 538 0 
L 538 4863 
z
" transform="scale(0.015625)"/>
       <path id="DejaVuSans-Bold-46" d="M 588 4666 
L 3834 4666 
L 3834 3756 
L 1791 3756 
L 1791 2888 
L 3713 2888 
L 3713 1978 
L 1791 1978 
L 1791 0 
L 588 0 
L 588 4666 
z
" transform="scale(0.015625)"/>
       <path id="DejaVuSans-Bold-71" d="M 2181 2772 
Q 1825 2772 1636 2509 
Q 1447 2247 1447 1747 
Q 1447 1247 1636 984 
Q 1825 722 2181 722 
Q 2541 722 2730 984 
Q 2919 1247 2919 1747 
Q 2919 2247 2730 2509 
Q 2541 2772 2181 2772 
z
M 2919 506 
Q 2688 197 2409 53 
Q 2131 -91 1766 -91 
Q 1119 -91 703 423 
Q 288 938 288 1747 
Q 288 2556 703 3067 
Q 1119 3578 1766 3578 
Q 2131 3578 2409 3434 
Q 2688 3291 2919 2981 
L 2919 3500 
L 4044 3500 
L 4044 -1331 
L 2919 -1331 
L 2919 506 
z
" transform="scale(0.015625)"/>
       <path id="DejaVuSans-Bold-75" d="M 500 1363 
L 500 3500 
L 1625 3500 
L 1625 3150 
Q 1625 2866 1622 2436 
Q 1619 2006 1619 1863 
Q 1619 1441 1641 1255 
Q 1663 1069 1716 984 
Q 1784 875 1895 815 
Q 2006 756 2150 756 
Q 2500 756 2700 1025 
Q 2900 1294 2900 1772 
L 2900 3500 
L 4019 3500 
L 4019 0 
L 2900 0 
L 2900 506 
Q 2647 200 2364 54 
Q 2081 -91 1741 -91 
Q 1134 -91 817 281 
Q 500 653 500 1363 
z
" transform="scale(0.015625)"/>
       <path id="DejaVuSans-Bold-6e" d="M 4056 2131 
L 4056 0 
L 2931 0 
L 2931 347 
L 2931 1631 
Q 2931 2084 2911 2256 
Q 2891 2428 2841 2509 
Q 2775 2619 2662 2680 
Q 2550 2741 2406 2741 
Q 2056 2741 1856 2470 
Q 1656 2200 1656 1722 
L 1656 0 
L 538 0 
L 538 3500 
L 1656 3500 
L 1656 2988 
Q 1909 3294 2193 3439 
Q 2478 3584 2822 3584 
Q 3428 3584 3742 3212 
Q 4056 2841 4056 2131 
z
" transform="scale(0.015625)"/>
       <path id="DejaVuSans-Bold-63" d="M 3366 3391 
L 3366 2478 
Q 3138 2634 2908 2709 
Q 2678 2784 2431 2784 
Q 1963 2784 1702 2511 
Q 1441 2238 1441 1747 
Q 1441 1256 1702 982 
Q 1963 709 2431 709 
Q 2694 709 2930 787 
Q 3166 866 3366 1019 
L 3366 103 
Q 3103 6 2833 -42 
Q 2563 -91 2291 -91 
Q 1344 -91 809 395 
Q 275 881 275 1747 
Q 275 2613 809 3098 
Q 1344 3584 2291 3584 
Q 2566 3584 2833 3536 
Q 3100 3488 3366 3391 
z
" transform="scale(0.015625)"/>
       <path id="DejaVuSans-Bold-79" d="M 78 3500 
L 1197 3500 
L 2138 1125 
L 2938 3500 
L 4056 3500 
L 2584 -331 
Q 2363 -916 2067 -1148 
Q 1772 -1381 1288 -1381 
L 641 -1381 
L 641 -647 
L 991 -647 
Q 1275 -647 1404 -556 
Q 1534 -466 1606 -231 
L 1638 -134 
L 78 3500 
z
" transform="scale(0.015625)"/>
      </defs>
      <use xlink:href="#DejaVuSans-Bold-41"/>
      <use xlink:href="#DejaVuSans-Bold-76" transform="translate(73.767578 0)"/>
      <use xlink:href="#DejaVuSans-Bold-65" transform="translate(138.953125 0)"/>
      <use xlink:href="#DejaVuSans-Bold-72" transform="translate(206.775391 0)"/>
      <use xlink:href="#DejaVuSans-Bold-61" transform="translate(256.091797 0)"/>
      <use xlink:href="#DejaVuSans-Bold-67" transform="translate(323.572266 0)"/>
      <use xlink:href="#DejaVuSans-Bold-65" transform="translate(395.154297 0)"/>
      <use xlink:href="#DejaVuSans-Bold-20" transform="translate(462.976562 0)"/>
      <use xlink:href="#DejaVuSans-Bold-41" transform="translate(497.791016 0)"/>
      <use xlink:href="#DejaVuSans-Bold-6c" transform="translate(575.183594 0)"/>
      <use xlink:href="#DejaVuSans-Bold-6c" transform="translate(609.460938 0)"/>
      <use xlink:href="#DejaVuSans-Bold-65" transform="translate(643.738281 0)"/>
      <use xlink:href="#DejaVuSans-Bold-6c" transform="translate(711.560547 0)"/>
      <use xlink:href="#DejaVuSans-Bold-65" transform="translate(745.837891 0)"/>
      <use xlink:href="#DejaVuSans-Bold-20" transform="translate(813.660156 0)"/>
      <use xlink:href="#DejaVuSans-Bold-46" transform="translate(848.474609 0)"/>
      <use xlink:href="#DejaVuSans-Bold-72" transform="translate(910.410156 0)"/>
      <use xlink:href="#DejaVuSans-Bold-65" transform="translate(959.726562 0)"/>
      <use xlink:href="#DejaVuSans-Bold-71" transform="translate(1027.548828 0)"/>
      <use xlink:href="#DejaVuSans-Bold-75" transform="translate(1099.130859 0)"/>
      <use xlink:href="#DejaVuSans-Bold-65" transform="translate(1170.322266 0)"/>
      <use xlink:href="#DejaVuSans-Bold-6e" transform="translate(1238.144531 0)"/>
      <use xlink:href="#DejaVuSans-Bold-63" transform="translate(1309.335938 0)"/>
      <use xlink:href="#DejaVuSans-Bold-79" transform="translate(1368.613281 0)"/>
     </g>
    </g>
   </g>
   <g id="matplotlib.axis_2">
    <g id="ytick_1">
     <g id="line2d_6">
      <defs>
       <path id="me08d9ecdb8" d="M 0 0 
L -3.5 0 
" style="stroke: #000000; stroke-width: 0.8"/>
      </defs>
      <g>
       <use xlink:href="#me08d9ecdb8" x="234.477812" y="40.176812" style="stroke: #000000; stroke-width: 0.8"/>
      </g>
     </g>
     <g id="text_7">
      <!-- 17:7571080_A&gt;G -->
      <g transform="translate(138.877813 43.88775) scale(0.1 -0.1)">
       <defs>
        <path id="DejaVuSans-31" d="M 794 531 
L 1825 531 
L 1825 4091 
L 703 3866 
L 703 4441 
L 1819 4666 
L 2450 4666 
L 2450 531 
L 3481 531 
L 3481 0 
L 794 0 
L 794 531 
z
" transform="scale(0.015625)"/>
        <path id="DejaVuSans-37" d="M 525 4666 
L 3525 4666 
L 3525 4397 
L 1831 0 
L 1172 0 
L 2766 4134 
L 525 4134 
L 525 4666 
z
" transform="scale(0.015625)"/>
        <path id="DejaVuSans-3a" d="M 750 794 
L 1409 794 
L 1409 0 
L 750 0 
L 750 794 
z
M 750 3309 
L 1409 3309 
L 1409 2516 
L 750 2516 
L 750 3309 
z
" transform="scale(0.015625)"/>
        <path id="DejaVuSans-35" d="M 691 4666 
L 3169 4666 
L 3169 4134 
L 1269 4134 
L 1269 2991 
Q 1406 3038 1543 3061 
Q 1681 3084 1819 3084 
Q 2600 3084 3056 2656 
Q 3513 2228 3513 1497 
Q 3513 744 3044 326 
Q 2575 -91 1722 -91 
Q 1428 -91 1123 -41 
Q 819 9 494 109 
L 494 744 
Q 775 591 1075 516 
Q 1375 441 1709 441 
Q 2250 441 2565 725 
Q 2881 1009 2881 1497 
Q 2881 1984 2565 2268 
Q 2250 2553 1709 2553 
Q 1456 2553 1204 2497 
Q 953 2441 691 2322 
L 691 4666 
z
" transform="scale(0.015625)"/>
        <path id="DejaVuSans-5f" d="M 3263 -1063 
L 3263 -1509 
L -63 -1509 
L -63 -1063 
L 3263 -1063 
z
" transform="scale(0.015625)"/>
        <path id="DejaVuSans-41" d="M 2188 4044 
L 1331 1722 
L 3047 1722 
L 2188 4044 
z
M 1831 4666 
L 2547 4666 
L 4325 0 
L 3669 0 
L 3244 1197 
L 1141 1197 
L 716 0 
L 50 0 
L 1831 4666 
z
" transform="scale(0.015625)"/>
        <path id="DejaVuSans-3e" d="M 678 3150 
L 678 3719 
L 4684 2266 
L 4684 1747 
L 678 294 
L 678 863 
L 3897 2003 
L 678 3150 
z
" transform="scale(0.015625)"/>
        <path id="DejaVuSans-47" d="M 3809 666 
L 3809 1919 
L 2778 1919 
L 2778 2438 
L 4434 2438 
L 4434 434 
Q 4069 175 3628 42 
Q 3188 -91 2688 -91 
Q 1594 -91 976 548 
Q 359 1188 359 2328 
Q 359 3472 976 4111 
Q 1594 4750 2688 4750 
Q 3144 4750 3555 4637 
Q 3966 4525 4313 4306 
L 4313 3634 
Q 3963 3931 3569 4081 
Q 3175 4231 2741 4231 
Q 1884 4231 1454 3753 
Q 1025 3275 1025 2328 
Q 1025 1384 1454 906 
Q 1884 428 2741 428 
Q 3075 428 3337 486 
Q 3600 544 3809 666 
z
" transform="scale(0.015625)"/>
       </defs>
       <use xlink:href="#DejaVuSans-31"/>
       <use xlink:href="#DejaVuSans-37" transform="translate(63.623047 0)"/>
       <use xlink:href="#DejaVuSans-3a" transform="translate(127.246094 0)"/>
       <use xlink:href="#DejaVuSans-37" transform="translate(160.9375 0)"/>
       <use xlink:href="#DejaVuSans-35" transform="translate(224.560547 0)"/>
       <use xlink:href="#DejaVuSans-37" transform="translate(288.183594 0)"/>
       <use xlink:href="#DejaVuSans-31" transform="translate(351.806641 0)"/>
       <use xlink:href="#DejaVuSans-30" transform="translate(415.429688 0)"/>
       <use xlink:href="#DejaVuSans-38" transform="translate(479.052734 0)"/>
       <use xlink:href="#DejaVuSans-30" transform="translate(542.675781 0)"/>
       <use xlink:href="#DejaVuSans-5f" transform="translate(606.298828 0)"/>
       <use xlink:href="#DejaVuSans-41" transform="translate(656.298828 0)"/>
       <use xlink:href="#DejaVuSans-3e" transform="translate(724.707031 0)"/>
       <use xlink:href="#DejaVuSans-47" transform="translate(808.496094 0)"/>
      </g>
     </g>
    </g>
    <g id="ytick_2">
     <g id="line2d_7">
      <g>
       <use xlink:href="#me08d9ecdb8" x="234.477812" y="64.854812" style="stroke: #000000; stroke-width: 0.8"/>
      </g>
     </g>
     <g id="text_8">
      <!-- 17:7580256_AT&gt;A -->
      <g transform="translate(134.452812 68.56575) scale(0.1 -0.1)">
       <defs>
        <path id="DejaVuSans-54" d="M -19 4666 
L 3928 4666 
L 3928 4134 
L 2272 4134 
L 2272 0 
L 1638 0 
L 1638 4134 
L -19 4134 
L -19 4666 
z
" transform="scale(0.015625)"/>
       </defs>
       <use xlink:href="#DejaVuSans-31"/>
       <use xlink:href="#DejaVuSans-37" transform="translate(63.623047 0)"/>
       <use xlink:href="#DejaVuSans-3a" transform="translate(127.246094 0)"/>
       <use xlink:href="#DejaVuSans-37" transform="translate(160.9375 0)"/>
       <use xlink:href="#DejaVuSans-35" transform="translate(224.560547 0)"/>
       <use xlink:href="#DejaVuSans-38" transform="translate(288.183594 0)"/>
       <use xlink:href="#DejaVuSans-30" transform="translate(351.806641 0)"/>
       <use xlink:href="#DejaVuSans-32" transform="translate(415.429688 0)"/>
       <use xlink:href="#DejaVuSans-35" transform="translate(479.052734 0)"/>
       <use xlink:href="#DejaVuSans-36" transform="translate(542.675781 0)"/>
       <use xlink:href="#DejaVuSans-5f" transform="translate(606.298828 0)"/>
       <use xlink:href="#DejaVuSans-41" transform="translate(656.298828 0)"/>
       <use xlink:href="#DejaVuSans-54" transform="translate(716.957031 0)"/>
       <use xlink:href="#DejaVuSans-3e" transform="translate(778.041016 0)"/>
       <use xlink:href="#DejaVuSans-41" transform="translate(861.830078 0)"/>
      </g>
     </g>
    </g>
    <g id="ytick_3">
     <g id="line2d_8">
      <g>
       <use xlink:href="#me08d9ecdb8" x="234.477812" y="89.532812" style="stroke: #000000; stroke-width: 0.8"/>
      </g>
     </g>
     <g id="text_9">
      <!-- 17:7578837_A&gt;G -->
      <g transform="translate(138.877813 93.24375) scale(0.1 -0.1)">
       <defs>
        <path id="DejaVuSans-33" d="M 2597 2516 
Q 3050 2419 3304 2112 
Q 3559 1806 3559 1356 
Q 3559 666 3084 287 
Q 2609 -91 1734 -91 
Q 1441 -91 1130 -33 
Q 819 25 488 141 
L 488 750 
Q 750 597 1062 519 
Q 1375 441 1716 441 
Q 2309 441 2620 675 
Q 2931 909 2931 1356 
Q 2931 1769 2642 2001 
Q 2353 2234 1838 2234 
L 1294 2234 
L 1294 2753 
L 1863 2753 
Q 2328 2753 2575 2939 
Q 2822 3125 2822 3475 
Q 2822 3834 2567 4026 
Q 2313 4219 1838 4219 
Q 1578 4219 1281 4162 
Q 984 4106 628 3988 
L 628 4550 
Q 988 4650 1302 4700 
Q 1616 4750 1894 4750 
Q 2613 4750 3031 4423 
Q 3450 4097 3450 3541 
Q 3450 3153 3228 2886 
Q 3006 2619 2597 2516 
z
" transform="scale(0.015625)"/>
       </defs>
       <use xlink:href="#DejaVuSans-31"/>
       <use xlink:href="#DejaVuSans-37" transform="translate(63.623047 0)"/>
       <use xlink:href="#DejaVuSans-3a" transform="translate(127.246094 0)"/>
       <use xlink:href="#DejaVuSans-37" transform="translate(160.9375 0)"/>
       <use xlink:href="#DejaVuSans-35" transform="translate(224.560547 0)"/>
       <use xlink:href="#DejaVuSans-37" transform="translate(288.183594 0)"/>
       <use xlink:href="#DejaVuSans-38" transform="translate(351.806641 0)"/>
       <use xlink:href="#DejaVuSans-38" transform="translate(415.429688 0)"/>
       <use xlink:href="#DejaVuSans-33" transform="translate(479.052734 0)"/>
       <use xlink:href="#DejaVuSans-37" transform="translate(542.675781 0)"/>
       <use xlink:href="#DejaVuSans-5f" transform="translate(606.298828 0)"/>
       <use xlink:href="#DejaVuSans-41" transform="translate(656.298828 0)"/>
       <use xlink:href="#DejaVuSans-3e" transform="translate(724.707031 0)"/>
       <use xlink:href="#DejaVuSans-47" transform="translate(808.496094 0)"/>
      </g>
     </g>
    </g>
    <g id="ytick_4">
     <g id="line2d_9">
      <g>
       <use xlink:href="#me08d9ecdb8" x="234.477812" y="114.210812" style="stroke: #000000; stroke-width: 0.8"/>
      </g>
     </g>
     <g id="text_10">
      <!-- 17:7578645_C&gt;T -->
      <g transform="translate(140.37625 117.92175) scale(0.1 -0.1)">
       <defs>
        <path id="DejaVuSans-43" d="M 4122 4306 
L 4122 3641 
Q 3803 3938 3442 4084 
Q 3081 4231 2675 4231 
Q 1875 4231 1450 3742 
Q 1025 3253 1025 2328 
Q 1025 1406 1450 917 
Q 1875 428 2675 428 
Q 3081 428 3442 575 
Q 3803 722 4122 1019 
L 4122 359 
Q 3791 134 3420 21 
Q 3050 -91 2638 -91 
Q 1578 -91 968 557 
Q 359 1206 359 2328 
Q 359 3453 968 4101 
Q 1578 4750 2638 4750 
Q 3056 4750 3426 4639 
Q 3797 4528 4122 4306 
z
" transform="scale(0.015625)"/>
       </defs>
       <use xlink:href="#DejaVuSans-31"/>
       <use xlink:href="#DejaVuSans-37" transform="translate(63.623047 0)"/>
       <use xlink:href="#DejaVuSans-3a" transform="translate(127.246094 0)"/>
       <use xlink:href="#DejaVuSans-37" transform="translate(160.9375 0)"/>
       <use xlink:href="#DejaVuSans-35" transform="translate(224.560547 0)"/>
       <use xlink:href="#DejaVuSans-37" transform="translate(288.183594 0)"/>
       <use xlink:href="#DejaVuSans-38" transform="translate(351.806641 0)"/>
       <use xlink:href="#DejaVuSans-36" transform="translate(415.429688 0)"/>
       <use xlink:href="#DejaVuSans-34" transform="translate(479.052734 0)"/>
       <use xlink:href="#DejaVuSans-35" transform="translate(542.675781 0)"/>
       <use xlink:href="#DejaVuSans-5f" transform="translate(606.298828 0)"/>
       <use xlink:href="#DejaVuSans-43" transform="translate(656.298828 0)"/>
       <use xlink:href="#DejaVuSans-3e" transform="translate(726.123047 0)"/>
       <use xlink:href="#DejaVuSans-54" transform="translate(809.912109 0)"/>
      </g>
     </g>
    </g>
    <g id="ytick_5">
     <g id="line2d_10">
      <g>
       <use xlink:href="#me08d9ecdb8" x="234.477812" y="138.888812" style="stroke: #000000; stroke-width: 0.8"/>
      </g>
     </g>
     <g id="text_11">
      <!-- 17:7578115_T&gt;C -->
      <g transform="translate(140.37625 142.59975) scale(0.1 -0.1)">
       <use xlink:href="#DejaVuSans-31"/>
       <use xlink:href="#DejaVuSans-37" transform="translate(63.623047 0)"/>
       <use xlink:href="#DejaVuSans-3a" transform="translate(127.246094 0)"/>
       <use xlink:href="#DejaVuSans-37" transform="translate(160.9375 0)"/>
       <use xlink:href="#DejaVuSans-35" transform="translate(224.560547 0)"/>
       <use xlink:href="#DejaVuSans-37" transform="translate(288.183594 0)"/>
       <use xlink:href="#DejaVuSans-38" transform="translate(351.806641 0)"/>
       <use xlink:href="#DejaVuSans-31" transform="translate(415.429688 0)"/>
       <use xlink:href="#DejaVuSans-31" transform="translate(479.052734 0)"/>
       <use xlink:href="#DejaVuSans-35" transform="translate(542.675781 0)"/>
       <use xlink:href="#DejaVuSans-5f" transform="translate(606.298828 0)"/>
       <use xlink:href="#DejaVuSans-54" transform="translate(656.298828 0)"/>
       <use xlink:href="#DejaVuSans-3e" transform="translate(717.382812 0)"/>
       <use xlink:href="#DejaVuSans-43" transform="translate(801.171875 0)"/>
      </g>
     </g>
    </g>
    <g id="ytick_6">
     <g id="line2d_11">
      <g>
       <use xlink:href="#me08d9ecdb8" x="234.477812" y="163.566812" style="stroke: #000000; stroke-width: 0.8"/>
      </g>
     </g>
     <g id="text_12">
      <!-- 17:7575564_T&gt;C -->
      <g transform="translate(140.37625 167.27775) scale(0.1 -0.1)">
       <use xlink:href="#DejaVuSans-31"/>
       <use xlink:href="#DejaVuSans-37" transform="translate(63.623047 0)"/>
       <use xlink:href="#DejaVuSans-3a" transform="translate(127.246094 0)"/>
       <use xlink:href="#DejaVuSans-37" transform="translate(160.9375 0)"/>
       <use xlink:href="#DejaVuSans-35" transform="translate(224.560547 0)"/>
       <use xlink:href="#DejaVuSans-37" transform="translate(288.183594 0)"/>
       <use xlink:href="#DejaVuSans-35" transform="translate(351.806641 0)"/>
       <use xlink:href="#DejaVuSans-35" transform="translate(415.429688 0)"/>
       <use xlink:href="#DejaVuSans-36" transform="translate(479.052734 0)"/>
       <use xlink:href="#DejaVuSans-34" transform="translate(542.675781 0)"/>
       <use xlink:href="#DejaVuSans-5f" transform="translate(606.298828 0)"/>
       <use xlink:href="#DejaVuSans-54" transform="translate(656.298828 0)"/>
       <use xlink:href="#DejaVuSans-3e" transform="translate(717.382812 0)"/>
       <use xlink:href="#DejaVuSans-43" transform="translate(801.171875 0)"/>
      </g>
     </g>
    </g>
    <g id="ytick_7">
     <g id="line2d_12">
      <g>
       <use xlink:href="#me08d9ecdb8" x="234.477812" y="188.244812" style="stroke: #000000; stroke-width: 0.8"/>
      </g>
     </g>
     <g id="text_13">
      <!-- 17:7570930_A&gt;G -->
      <g transform="translate(138.877813 191.95575) scale(0.1 -0.1)">
       <defs>
        <path id="DejaVuSans-39" d="M 703 97 
L 703 672 
Q 941 559 1184 500 
Q 1428 441 1663 441 
Q 2288 441 2617 861 
Q 2947 1281 2994 2138 
Q 2813 1869 2534 1725 
Q 2256 1581 1919 1581 
Q 1219 1581 811 2004 
Q 403 2428 403 3163 
Q 403 3881 828 4315 
Q 1253 4750 1959 4750 
Q 2769 4750 3195 4129 
Q 3622 3509 3622 2328 
Q 3622 1225 3098 567 
Q 2575 -91 1691 -91 
Q 1453 -91 1209 -44 
Q 966 3 703 97 
z
M 1959 2075 
Q 2384 2075 2632 2365 
Q 2881 2656 2881 3163 
Q 2881 3666 2632 3958 
Q 2384 4250 1959 4250 
Q 1534 4250 1286 3958 
Q 1038 3666 1038 3163 
Q 1038 2656 1286 2365 
Q 1534 2075 1959 2075 
z
" transform="scale(0.015625)"/>
       </defs>
       <use xlink:href="#DejaVuSans-31"/>
       <use xlink:href="#DejaVuSans-37" transform="translate(63.623047 0)"/>
       <use xlink:href="#DejaVuSans-3a" transform="translate(127.246094 0)"/>
       <use xlink:href="#DejaVuSans-37" transform="translate(160.9375 0)"/>
       <use xlink:href="#DejaVuSans-35" transform="translate(224.560547 0)"/>
       <use xlink:href="#DejaVuSans-37" transform="translate(288.183594 0)"/>
       <use xlink:href="#DejaVuSans-30" transform="translate(351.806641 0)"/>
       <use xlink:href="#DejaVuSans-39" transform="translate(415.429688 0)"/>
       <use xlink:href="#DejaVuSans-33" transform="translate(479.052734 0)"/>
       <use xlink:href="#DejaVuSans-30" transform="translate(542.675781 0)"/>
       <use xlink:href="#DejaVuSans-5f" transform="translate(606.298828 0)"/>
       <use xlink:href="#DejaVuSans-41" transform="translate(656.298828 0)"/>
       <use xlink:href="#DejaVuSans-3e" transform="translate(724.707031 0)"/>
       <use xlink:href="#DejaVuSans-47" transform="translate(808.496094 0)"/>
      </g>
     </g>
    </g>
    <g id="ytick_8">
     <g id="line2d_13">
      <g>
       <use xlink:href="#me08d9ecdb8" x="234.477812" y="212.922812" style="stroke: #000000; stroke-width: 0.8"/>
      </g>
     </g>
     <g id="text_14">
      <!-- 17:7570929_C&gt;T -->
      <g transform="translate(140.37625 216.63375) scale(0.1 -0.1)">
       <use xlink:href="#DejaVuSans-31"/>
       <use xlink:href="#DejaVuSans-37" transform="translate(63.623047 0)"/>
       <use xlink:href="#DejaVuSans-3a" transform="translate(127.246094 0)"/>
       <use xlink:href="#DejaVuSans-37" transform="translate(160.9375 0)"/>
       <use xlink:href="#DejaVuSans-35" transform="translate(224.560547 0)"/>
       <use xlink:href="#DejaVuSans-37" transform="translate(288.183594 0)"/>
       <use xlink:href="#DejaVuSans-30" transform="translate(351.806641 0)"/>
       <use xlink:href="#DejaVuSans-39" transform="translate(415.429688 0)"/>
       <use xlink:href="#DejaVuSans-32" transform="translate(479.052734 0)"/>
       <use xlink:href="#DejaVuSans-39" transform="translate(542.675781 0)"/>
       <use xlink:href="#DejaVuSans-5f" transform="translate(606.298828 0)"/>
       <use xlink:href="#DejaVuSans-43" transform="translate(656.298828 0)"/>
       <use xlink:href="#DejaVuSans-3e" transform="translate(726.123047 0)"/>
       <use xlink:href="#DejaVuSans-54" transform="translate(809.912109 0)"/>
      </g>
     </g>
    </g>
    <g id="ytick_9">
     <g id="line2d_14">
      <g>
       <use xlink:href="#me08d9ecdb8" x="234.477812" y="237.600812" style="stroke: #000000; stroke-width: 0.8"/>
      </g>
     </g>
     <g id="text_15">
      <!-- 17:7570578_TA&gt;T -->
      <g transform="translate(135.185625 241.31175) scale(0.1 -0.1)">
       <use xlink:href="#DejaVuSans-31"/>
       <use xlink:href="#DejaVuSans-37" transform="translate(63.623047 0)"/>
       <use xlink:href="#DejaVuSans-3a" transform="translate(127.246094 0)"/>
       <use xlink:href="#DejaVuSans-37" transform="translate(160.9375 0)"/>
       <use xlink:href="#DejaVuSans-35" transform="translate(224.560547 0)"/>
       <use xlink:href="#DejaVuSans-37" transform="translate(288.183594 0)"/>
       <use xlink:href="#DejaVuSans-30" transform="translate(351.806641 0)"/>
       <use xlink:href="#DejaVuSans-35" transform="translate(415.429688 0)"/>
       <use xlink:href="#DejaVuSans-37" transform="translate(479.052734 0)"/>
       <use xlink:href="#DejaVuSans-38" transform="translate(542.675781 0)"/>
       <use xlink:href="#DejaVuSans-5f" transform="translate(606.298828 0)"/>
       <use xlink:href="#DejaVuSans-54" transform="translate(656.298828 0)"/>
       <use xlink:href="#DejaVuSans-41" transform="translate(709.632812 0)"/>
       <use xlink:href="#DejaVuSans-3e" transform="translate(778.041016 0)"/>
       <use xlink:href="#DejaVuSans-54" transform="translate(861.830078 0)"/>
      </g>
     </g>
    </g>
    <g id="ytick_10">
     <g id="line2d_15">
      <g>
       <use xlink:href="#me08d9ecdb8" x="234.477812" y="262.278812" style="stroke: #000000; stroke-width: 0.8"/>
      </g>
     </g>
     <g id="text_16">
      <!-- 17:7570878_G&gt;A -->
      <g transform="translate(138.877813 265.98975) scale(0.1 -0.1)">
       <use xlink:href="#DejaVuSans-31"/>
       <use xlink:href="#DejaVuSans-37" transform="translate(63.623047 0)"/>
       <use xlink:href="#DejaVuSans-3a" transform="translate(127.246094 0)"/>
       <use xlink:href="#DejaVuSans-37" transform="translate(160.9375 0)"/>
       <use xlink:href="#DejaVuSans-35" transform="translate(224.560547 0)"/>
       <use xlink:href="#DejaVuSans-37" transform="translate(288.183594 0)"/>
       <use xlink:href="#DejaVuSans-30" transform="translate(351.806641 0)"/>
       <use xlink:href="#DejaVuSans-38" transform="translate(415.429688 0)"/>
       <use xlink:href="#DejaVuSans-37" transform="translate(479.052734 0)"/>
       <use xlink:href="#DejaVuSans-38" transform="translate(542.675781 0)"/>
       <use xlink:href="#DejaVuSans-5f" transform="translate(606.298828 0)"/>
       <use xlink:href="#DejaVuSans-47" transform="translate(656.298828 0)"/>
       <use xlink:href="#DejaVuSans-3e" transform="translate(733.789062 0)"/>
       <use xlink:href="#DejaVuSans-41" transform="translate(817.578125 0)"/>
      </g>
     </g>
    </g>
    <g id="ytick_11">
     <g id="line2d_16">
      <g>
       <use xlink:href="#me08d9ecdb8" x="234.477812" y="286.956812" style="stroke: #000000; stroke-width: 0.8"/>
      </g>
     </g>
     <g id="text_17">
      <!-- 17:7579801_G&gt;C -->
      <g transform="translate(138.735625 290.66775) scale(0.1 -0.1)">
       <use xlink:href="#DejaVuSans-31"/>
       <use xlink:href="#DejaVuSans-37" transform="translate(63.623047 0)"/>
       <use xlink:href="#DejaVuSans-3a" transform="translate(127.246094 0)"/>
       <use xlink:href="#DejaVuSans-37" transform="translate(160.9375 0)"/>
       <use xlink:href="#DejaVuSans-35" transform="translate(224.560547 0)"/>
       <use xlink:href="#DejaVuSans-37" transform="translate(288.183594 0)"/>
       <use xlink:href="#DejaVuSans-39" transform="translate(351.806641 0)"/>
       <use xlink:href="#DejaVuSans-38" transform="translate(415.429688 0)"/>
       <use xlink:href="#DejaVuSans-30" transform="translate(479.052734 0)"/>
       <use xlink:href="#DejaVuSans-31" transform="translate(542.675781 0)"/>
       <use xlink:href="#DejaVuSans-5f" transform="translate(606.298828 0)"/>
       <use xlink:href="#DejaVuSans-47" transform="translate(656.298828 0)"/>
       <use xlink:href="#DejaVuSans-3e" transform="translate(733.789062 0)"/>
       <use xlink:href="#DejaVuSans-43" transform="translate(817.578125 0)"/>
      </g>
     </g>
    </g>
    <g id="ytick_12">
     <g id="line2d_17">
      <g>
       <use xlink:href="#me08d9ecdb8" x="234.477812" y="311.634812" style="stroke: #000000; stroke-width: 0.8"/>
      </g>
     </g>
     <g id="text_18">
      <!-- 17:7579643_CCCCCAGCCCTCCAGGT&gt;C -->
      <g transform="translate(28.81375 315.34575) scale(0.1 -0.1)">
       <use xlink:href="#DejaVuSans-31"/>
       <use xlink:href="#DejaVuSans-37" transform="translate(63.623047 0)"/>
       <use xlink:href="#DejaVuSans-3a" transform="translate(127.246094 0)"/>
       <use xlink:href="#DejaVuSans-37" transform="translate(160.9375 0)"/>
       <use xlink:href="#DejaVuSans-35" transform="translate(224.560547 0)"/>
       <use xlink:href="#DejaVuSans-37" transform="translate(288.183594 0)"/>
       <use xlink:href="#DejaVuSans-39" transform="translate(351.806641 0)"/>
       <use xlink:href="#DejaVuSans-36" transform="translate(415.429688 0)"/>
       <use xlink:href="#DejaVuSans-34" transform="translate(479.052734 0)"/>
       <use xlink:href="#DejaVuSans-33" transform="translate(542.675781 0)"/>
       <use xlink:href="#DejaVuSans-5f" transform="translate(606.298828 0)"/>
       <use xlink:href="#DejaVuSans-43" transform="translate(656.298828 0)"/>
       <use xlink:href="#DejaVuSans-43" transform="translate(726.123047 0)"/>
       <use xlink:href="#DejaVuSans-43" transform="translate(795.947266 0)"/>
       <use xlink:href="#DejaVuSans-43" transform="translate(865.771484 0)"/>
       <use xlink:href="#DejaVuSans-43" transform="translate(935.595703 0)"/>
       <use xlink:href="#DejaVuSans-41" transform="translate(1005.419922 0)"/>
       <use xlink:href="#DejaVuSans-47" transform="translate(1072.078125 0)"/>
       <use xlink:href="#DejaVuSans-43" transform="translate(1149.568359 0)"/>
       <use xlink:href="#DejaVuSans-43" transform="translate(1219.392578 0)"/>
       <use xlink:href="#DejaVuSans-43" transform="translate(1289.216797 0)"/>
       <use xlink:href="#DejaVuSans-54" transform="translate(1359.041016 0)"/>
       <use xlink:href="#DejaVuSans-43" transform="translate(1414.25 0)"/>
       <use xlink:href="#DejaVuSans-43" transform="translate(1484.074219 0)"/>
       <use xlink:href="#DejaVuSans-41" transform="translate(1553.898438 0)"/>
       <use xlink:href="#DejaVuSans-47" transform="translate(1620.556641 0)"/>
       <use xlink:href="#DejaVuSans-47" transform="translate(1698.046875 0)"/>
       <use xlink:href="#DejaVuSans-54" transform="translate(1771.912109 0)"/>
       <use xlink:href="#DejaVuSans-3e" transform="translate(1832.996094 0)"/>
       <use xlink:href="#DejaVuSans-43" transform="translate(1916.785156 0)"/>
      </g>
     </g>
    </g>
    <g id="ytick_13">
     <g id="line2d_18">
      <g>
       <use xlink:href="#me08d9ecdb8" x="234.477812" y="336.312812" style="stroke: #000000; stroke-width: 0.8"/>
      </g>
     </g>
     <g id="text_19">
      <!-- 17:7579472_G&gt;C -->
      <g transform="translate(138.735625 340.02375) scale(0.1 -0.1)">
       <use xlink:href="#DejaVuSans-31"/>
       <use xlink:href="#DejaVuSans-37" transform="translate(63.623047 0)"/>
       <use xlink:href="#DejaVuSans-3a" transform="translate(127.246094 0)"/>
       <use xlink:href="#DejaVuSans-37" transform="translate(160.9375 0)"/>
       <use xlink:href="#DejaVuSans-35" transform="translate(224.560547 0)"/>
       <use xlink:href="#DejaVuSans-37" transform="translate(288.183594 0)"/>
       <use xlink:href="#DejaVuSans-39" transform="translate(351.806641 0)"/>
       <use xlink:href="#DejaVuSans-34" transform="translate(415.429688 0)"/>
       <use xlink:href="#DejaVuSans-37" transform="translate(479.052734 0)"/>
       <use xlink:href="#DejaVuSans-32" transform="translate(542.675781 0)"/>
       <use xlink:href="#DejaVuSans-5f" transform="translate(606.298828 0)"/>
       <use xlink:href="#DejaVuSans-47" transform="translate(656.298828 0)"/>
       <use xlink:href="#DejaVuSans-3e" transform="translate(733.789062 0)"/>
       <use xlink:href="#DejaVuSans-43" transform="translate(817.578125 0)"/>
      </g>
     </g>
    </g>
    <g id="ytick_14">
     <g id="line2d_19">
      <g>
       <use xlink:href="#me08d9ecdb8" x="234.477812" y="360.990812" style="stroke: #000000; stroke-width: 0.8"/>
      </g>
     </g>
     <g id="text_20">
      <!-- 17:7567737_C&gt;CT -->
      <g transform="translate(133.393438 364.70175) scale(0.1 -0.1)">
       <use xlink:href="#DejaVuSans-31"/>
       <use xlink:href="#DejaVuSans-37" transform="translate(63.623047 0)"/>
       <use xlink:href="#DejaVuSans-3a" transform="translate(127.246094 0)"/>
       <use xlink:href="#DejaVuSans-37" transform="translate(160.9375 0)"/>
       <use xlink:href="#DejaVuSans-35" transform="translate(224.560547 0)"/>
       <use xlink:href="#DejaVuSans-36" transform="translate(288.183594 0)"/>
       <use xlink:href="#DejaVuSans-37" transform="translate(351.806641 0)"/>
       <use xlink:href="#DejaVuSans-37" transform="translate(415.429688 0)"/>
       <use xlink:href="#DejaVuSans-33" transform="translate(479.052734 0)"/>
       <use xlink:href="#DejaVuSans-37" transform="translate(542.675781 0)"/>
       <use xlink:href="#DejaVuSans-5f" transform="translate(606.298828 0)"/>
       <use xlink:href="#DejaVuSans-43" transform="translate(656.298828 0)"/>
       <use xlink:href="#DejaVuSans-3e" transform="translate(726.123047 0)"/>
       <use xlink:href="#DejaVuSans-43" transform="translate(809.912109 0)"/>
       <use xlink:href="#DejaVuSans-54" transform="translate(879.736328 0)"/>
      </g>
     </g>
    </g>
    <g id="ytick_15">
     <g id="line2d_20">
      <g>
       <use xlink:href="#me08d9ecdb8" x="234.477812" y="385.668812" style="stroke: #000000; stroke-width: 0.8"/>
      </g>
     </g>
     <g id="text_21">
      <!-- 17:7567703_A&gt;G -->
      <g transform="translate(138.877813 389.37975) scale(0.1 -0.1)">
       <use xlink:href="#DejaVuSans-31"/>
       <use xlink:href="#DejaVuSans-37" transform="translate(63.623047 0)"/>
       <use xlink:href="#DejaVuSans-3a" transform="translate(127.246094 0)"/>
       <use xlink:href="#DejaVuSans-37" transform="translate(160.9375 0)"/>
       <use xlink:href="#DejaVuSans-35" transform="translate(224.560547 0)"/>
       <use xlink:href="#DejaVuSans-36" transform="translate(288.183594 0)"/>
       <use xlink:href="#DejaVuSans-37" transform="translate(351.806641 0)"/>
       <use xlink:href="#DejaVuSans-37" transform="translate(415.429688 0)"/>
       <use xlink:href="#DejaVuSans-30" transform="translate(479.052734 0)"/>
       <use xlink:href="#DejaVuSans-33" transform="translate(542.675781 0)"/>
       <use xlink:href="#DejaVuSans-5f" transform="translate(606.298828 0)"/>
       <use xlink:href="#DejaVuSans-41" transform="translate(656.298828 0)"/>
       <use xlink:href="#DejaVuSans-3e" transform="translate(724.707031 0)"/>
       <use xlink:href="#DejaVuSans-47" transform="translate(808.496094 0)"/>
      </g>
     </g>
    </g>
    <g id="ytick_16">
     <g id="line2d_21">
      <g>
       <use xlink:href="#me08d9ecdb8" x="234.477812" y="410.346812" style="stroke: #000000; stroke-width: 0.8"/>
      </g>
     </g>
     <g id="text_22">
      <!-- 17:7567902_C&gt;CT -->
      <g transform="translate(133.393438 414.05775) scale(0.1 -0.1)">
       <use xlink:href="#DejaVuSans-31"/>
       <use xlink:href="#DejaVuSans-37" transform="translate(63.623047 0)"/>
       <use xlink:href="#DejaVuSans-3a" transform="translate(127.246094 0)"/>
       <use xlink:href="#DejaVuSans-37" transform="translate(160.9375 0)"/>
       <use xlink:href="#DejaVuSans-35" transform="translate(224.560547 0)"/>
       <use xlink:href="#DejaVuSans-36" transform="translate(288.183594 0)"/>
       <use xlink:href="#DejaVuSans-37" transform="translate(351.806641 0)"/>
       <use xlink:href="#DejaVuSans-39" transform="translate(415.429688 0)"/>
       <use xlink:href="#DejaVuSans-30" transform="translate(479.052734 0)"/>
       <use xlink:href="#DejaVuSans-32" transform="translate(542.675781 0)"/>
       <use xlink:href="#DejaVuSans-5f" transform="translate(606.298828 0)"/>
       <use xlink:href="#DejaVuSans-43" transform="translate(656.298828 0)"/>
       <use xlink:href="#DejaVuSans-3e" transform="translate(726.123047 0)"/>
       <use xlink:href="#DejaVuSans-43" transform="translate(809.912109 0)"/>
       <use xlink:href="#DejaVuSans-54" transform="translate(879.736328 0)"/>
      </g>
     </g>
    </g>
    <g id="ytick_17">
     <g id="line2d_22">
      <g>
       <use xlink:href="#me08d9ecdb8" x="234.477812" y="435.024812" style="stroke: #000000; stroke-width: 0.8"/>
      </g>
     </g>
     <g id="text_23">
      <!-- 17:7566133_A&gt;G -->
      <g transform="translate(138.877813 438.73575) scale(0.1 -0.1)">
       <use xlink:href="#DejaVuSans-31"/>
       <use xlink:href="#DejaVuSans-37" transform="translate(63.623047 0)"/>
       <use xlink:href="#DejaVuSans-3a" transform="translate(127.246094 0)"/>
       <use xlink:href="#DejaVuSans-37" transform="translate(160.9375 0)"/>
       <use xlink:href="#DejaVuSans-35" transform="translate(224.560547 0)"/>
       <use xlink:href="#DejaVuSans-36" transform="translate(288.183594 0)"/>
       <use xlink:href="#DejaVuSans-36" transform="translate(351.806641 0)"/>
       <use xlink:href="#DejaVuSans-31" transform="translate(415.429688 0)"/>
       <use xlink:href="#DejaVuSans-33" transform="translate(479.052734 0)"/>
       <use xlink:href="#DejaVuSans-33" transform="translate(542.675781 0)"/>
       <use xlink:href="#DejaVuSans-5f" transform="translate(606.298828 0)"/>
       <use xlink:href="#DejaVuSans-41" transform="translate(656.298828 0)"/>
       <use xlink:href="#DejaVuSans-3e" transform="translate(724.707031 0)"/>
       <use xlink:href="#DejaVuSans-47" transform="translate(808.496094 0)"/>
      </g>
     </g>
    </g>
    <g id="ytick_18">
     <g id="line2d_23">
      <g>
       <use xlink:href="#me08d9ecdb8" x="234.477812" y="459.702812" style="stroke: #000000; stroke-width: 0.8"/>
      </g>
     </g>
     <g id="text_24">
      <!-- 17:7572154_G&gt;A -->
      <g transform="translate(138.877813 463.41375) scale(0.1 -0.1)">
       <use xlink:href="#DejaVuSans-31"/>
       <use xlink:href="#DejaVuSans-37" transform="translate(63.623047 0)"/>
       <use xlink:href="#DejaVuSans-3a" transform="translate(127.246094 0)"/>
       <use xlink:href="#DejaVuSans-37" transform="translate(160.9375 0)"/>
       <use xlink:href="#DejaVuSans-35" transform="translate(224.560547 0)"/>
       <use xlink:href="#DejaVuSans-37" transform="translate(288.183594 0)"/>
       <use xlink:href="#DejaVuSans-32" transform="translate(351.806641 0)"/>
       <use xlink:href="#DejaVuSans-31" transform="translate(415.429688 0)"/>
       <use xlink:href="#DejaVuSans-35" transform="translate(479.052734 0)"/>
       <use xlink:href="#DejaVuSans-34" transform="translate(542.675781 0)"/>
       <use xlink:href="#DejaVuSans-5f" transform="translate(606.298828 0)"/>
       <use xlink:href="#DejaVuSans-47" transform="translate(656.298828 0)"/>
       <use xlink:href="#DejaVuSans-3e" transform="translate(733.789062 0)"/>
       <use xlink:href="#DejaVuSans-41" transform="translate(817.578125 0)"/>
      </g>
     </g>
    </g>
    <g id="ytick_19">
     <g id="line2d_24">
      <g>
       <use xlink:href="#me08d9ecdb8" x="234.477812" y="484.380812" style="stroke: #000000; stroke-width: 0.8"/>
      </g>
     </g>
     <g id="text_25">
      <!-- 17:7574775_C&gt;T -->
      <g transform="translate(140.37625 488.09175) scale(0.1 -0.1)">
       <use xlink:href="#DejaVuSans-31"/>
       <use xlink:href="#DejaVuSans-37" transform="translate(63.623047 0)"/>
       <use xlink:href="#DejaVuSans-3a" transform="translate(127.246094 0)"/>
       <use xlink:href="#DejaVuSans-37" transform="translate(160.9375 0)"/>
       <use xlink:href="#DejaVuSans-35" transform="translate(224.560547 0)"/>
       <use xlink:href="#DejaVuSans-37" transform="translate(288.183594 0)"/>
       <use xlink:href="#DejaVuSans-34" transform="translate(351.806641 0)"/>
       <use xlink:href="#DejaVuSans-37" transform="translate(415.429688 0)"/>
       <use xlink:href="#DejaVuSans-37" transform="translate(479.052734 0)"/>
       <use xlink:href="#DejaVuSans-35" transform="translate(542.675781 0)"/>
       <use xlink:href="#DejaVuSans-5f" transform="translate(606.298828 0)"/>
       <use xlink:href="#DejaVuSans-43" transform="translate(656.298828 0)"/>
       <use xlink:href="#DejaVuSans-3e" transform="translate(726.123047 0)"/>
       <use xlink:href="#DejaVuSans-54" transform="translate(809.912109 0)"/>
      </g>
     </g>
    </g>
    <g id="ytick_20">
     <g id="line2d_25">
      <g>
       <use xlink:href="#me08d9ecdb8" x="234.477812" y="509.058812" style="stroke: #000000; stroke-width: 0.8"/>
      </g>
     </g>
     <g id="text_26">
      <!-- 17:7589311_G&gt;C -->
      <g transform="translate(138.735625 512.76975) scale(0.1 -0.1)">
       <use xlink:href="#DejaVuSans-31"/>
       <use xlink:href="#DejaVuSans-37" transform="translate(63.623047 0)"/>
       <use xlink:href="#DejaVuSans-3a" transform="translate(127.246094 0)"/>
       <use xlink:href="#DejaVuSans-37" transform="translate(160.9375 0)"/>
       <use xlink:href="#DejaVuSans-35" transform="translate(224.560547 0)"/>
       <use xlink:href="#DejaVuSans-38" transform="translate(288.183594 0)"/>
       <use xlink:href="#DejaVuSans-39" transform="translate(351.806641 0)"/>
       <use xlink:href="#DejaVuSans-33" transform="translate(415.429688 0)"/>
       <use xlink:href="#DejaVuSans-31" transform="translate(479.052734 0)"/>
       <use xlink:href="#DejaVuSans-31" transform="translate(542.675781 0)"/>
       <use xlink:href="#DejaVuSans-5f" transform="translate(606.298828 0)"/>
       <use xlink:href="#DejaVuSans-47" transform="translate(656.298828 0)"/>
       <use xlink:href="#DejaVuSans-3e" transform="translate(733.789062 0)"/>
       <use xlink:href="#DejaVuSans-43" transform="translate(817.578125 0)"/>
      </g>
     </g>
    </g>
    <g id="text_27">
     <!-- Variant -->
     <g transform="translate(16.318125 299.184062) rotate(-90) scale(0.12 -0.12)">
      <defs>
       <path id="DejaVuSans-Bold-56" d="M 31 4666 
L 1241 4666 
L 2478 1222 
L 3713 4666 
L 4922 4666 
L 3194 0 
L 1759 0 
L 31 4666 
z
" transform="scale(0.015625)"/>
       <path id="DejaVuSans-Bold-69" d="M 538 3500 
L 1656 3500 
L 1656 0 
L 538 0 
L 538 3500 
z
M 538 4863 
L 1656 4863 
L 1656 3950 
L 538 3950 
L 538 4863 
z
" transform="scale(0.015625)"/>
       <path id="DejaVuSans-Bold-74" d="M 1759 4494 
L 1759 3500 
L 2913 3500 
L 2913 2700 
L 1759 2700 
L 1759 1216 
Q 1759 972 1856 886 
Q 1953 800 2241 800 
L 2816 800 
L 2816 0 
L 1856 0 
Q 1194 0 917 276 
Q 641 553 641 1216 
L 641 2700 
L 84 2700 
L 84 3500 
L 641 3500 
L 641 4494 
L 1759 4494 
z
" transform="scale(0.015625)"/>
      </defs>
      <use xlink:href="#DejaVuSans-Bold-56"/>
      <use xlink:href="#DejaVuSans-Bold-61" transform="translate(71.892578 0)"/>
      <use xlink:href="#DejaVuSans-Bold-72" transform="translate(139.373047 0)"/>
      <use xlink:href="#DejaVuSans-Bold-69" transform="translate(188.689453 0)"/>
      <use xlink:href="#DejaVuSans-Bold-61" transform="translate(222.966797 0)"/>
      <use xlink:href="#DejaVuSans-Bold-6e" transform="translate(290.447266 0)"/>
      <use xlink:href="#DejaVuSans-Bold-74" transform="translate(361.638672 0)"/>
     </g>
    </g>
   </g>
   <g id="line2d_26">
    <path clip-path="url(#pe887a263df)" style="fill: none; stroke: #424242; stroke-width: 2.25; stroke-linecap: square"/>
   </g>
   <g id="line2d_27">
    <path clip-path="url(#pe887a263df)" style="fill: none; stroke: #424242; stroke-width: 2.25; stroke-linecap: square"/>
   </g>
   <g id="line2d_28">
    <path clip-path="url(#pe887a263df)" style="fill: none; stroke: #424242; stroke-width: 2.25; stroke-linecap: square"/>
   </g>
   <g id="line2d_29">
    <path clip-path="url(#pe887a263df)" style="fill: none; stroke: #424242; stroke-width: 2.25; stroke-linecap: square"/>
   </g>
   <g id="line2d_30">
    <path clip-path="url(#pe887a263df)" style="fill: none; stroke: #424242; stroke-width: 2.25; stroke-linecap: square"/>
   </g>
   <g id="line2d_31">
    <path clip-path="url(#pe887a263df)" style="fill: none; stroke: #424242; stroke-width: 2.25; stroke-linecap: square"/>
   </g>
   <g id="line2d_32">
    <path clip-path="url(#pe887a263df)" style="fill: none; stroke: #424242; stroke-width: 2.25; stroke-linecap: square"/>
   </g>
   <g id="line2d_33">
    <path clip-path="url(#pe887a263df)" style="fill: none; stroke: #424242; stroke-width: 2.25; stroke-linecap: square"/>
   </g>
   <g id="line2d_34">
    <path clip-path="url(#pe887a263df)" style="fill: none; stroke: #424242; stroke-width: 2.25; stroke-linecap: square"/>
   </g>
   <g id="line2d_35">
    <path clip-path="url(#pe887a263df)" style="fill: none; stroke: #424242; stroke-width: 2.25; stroke-linecap: square"/>
   </g>
   <g id="line2d_36">
    <path clip-path="url(#pe887a263df)" style="fill: none; stroke: #424242; stroke-width: 2.25; stroke-linecap: square"/>
   </g>
   <g id="line2d_37">
    <path clip-path="url(#pe887a263df)" style="fill: none; stroke: #424242; stroke-width: 2.25; stroke-linecap: square"/>
   </g>
   <g id="line2d_38">
    <path clip-path="url(#pe887a263df)" style="fill: none; stroke: #424242; stroke-width: 2.25; stroke-linecap: square"/>
   </g>
   <g id="line2d_39">
    <path clip-path="url(#pe887a263df)" style="fill: none; stroke: #424242; stroke-width: 2.25; stroke-linecap: square"/>
   </g>
   <g id="line2d_40">
    <path clip-path="url(#pe887a263df)" style="fill: none; stroke: #424242; stroke-width: 2.25; stroke-linecap: square"/>
   </g>
   <g id="line2d_41">
    <path clip-path="url(#pe887a263df)" style="fill: none; stroke: #424242; stroke-width: 2.25; stroke-linecap: square"/>
   </g>
   <g id="line2d_42">
    <path clip-path="url(#pe887a263df)" style="fill: none; stroke: #424242; stroke-width: 2.25; stroke-linecap: square"/>
   </g>
   <g id="line2d_43">
    <path clip-path="url(#pe887a263df)" style="fill: none; stroke: #424242; stroke-width: 2.25; stroke-linecap: square"/>
   </g>
   <g id="line2d_44">
    <path clip-path="url(#pe887a263df)" style="fill: none; stroke: #424242; stroke-width: 2.25; stroke-linecap: square"/>
   </g>
   <g id="line2d_45">
    <path clip-path="url(#pe887a263df)" style="fill: none; stroke: #424242; stroke-width: 2.25; stroke-linecap: square"/>
   </g>
   <g id="patch_23">
    <path d="M 234.477812 521.397812 
L 234.477812 27.837812 
" style="fill: none; stroke: #000000; stroke-width: 0.8; stroke-linejoin: miter; stroke-linecap: square"/>
   </g>
   <g id="patch_24">
    <path d="M 704.107813 521.397812 
L 704.107813 27.837812 
" style="fill: none; stroke: #000000; stroke-width: 0.8; stroke-linejoin: miter; stroke-linecap: square"/>
   </g>
   <g id="patch_25">
    <path d="M 234.477812 521.397812 
L 704.107813 521.397812 
" style="fill: none; stroke: #000000; stroke-width: 0.8; stroke-linejoin: miter; stroke-linecap: square"/>
   </g>
   <g id="patch_26">
    <path d="M 234.477812 27.837812 
L 704.107813 27.837812 
" style="fill: none; stroke: #000000; stroke-width: 0.8; stroke-linejoin: miter; stroke-linecap: square"/>
   </g>
   <g id="text_28">
    <!-- Top 20 TP53 Variants by Average Allele Frequency Across Populations -->
    <g transform="translate(193.489531 17.837812) scale(0.14 -0.14)">
     <defs>
      <path id="DejaVuSans-Bold-54" d="M 31 4666 
L 4331 4666 
L 4331 3756 
L 2784 3756 
L 2784 0 
L 1581 0 
L 1581 3756 
L 31 3756 
L 31 4666 
z
" transform="scale(0.015625)"/>
      <path id="DejaVuSans-Bold-6f" d="M 2203 2784 
Q 1831 2784 1636 2517 
Q 1441 2250 1441 1747 
Q 1441 1244 1636 976 
Q 1831 709 2203 709 
Q 2569 709 2762 976 
Q 2956 1244 2956 1747 
Q 2956 2250 2762 2517 
Q 2569 2784 2203 2784 
z
M 2203 3584 
Q 3106 3584 3614 3096 
Q 4122 2609 4122 1747 
Q 4122 884 3614 396 
Q 3106 -91 2203 -91 
Q 1297 -91 786 396 
Q 275 884 275 1747 
Q 275 2609 786 3096 
Q 1297 3584 2203 3584 
z
" transform="scale(0.015625)"/>
      <path id="DejaVuSans-Bold-70" d="M 1656 506 
L 1656 -1331 
L 538 -1331 
L 538 3500 
L 1656 3500 
L 1656 2988 
Q 1888 3294 2169 3439 
Q 2450 3584 2816 3584 
Q 3463 3584 3878 3070 
Q 4294 2556 4294 1747 
Q 4294 938 3878 423 
Q 3463 -91 2816 -91 
Q 2450 -91 2169 54 
Q 1888 200 1656 506 
z
M 2400 2772 
Q 2041 2772 1848 2508 
Q 1656 2244 1656 1747 
Q 1656 1250 1848 986 
Q 2041 722 2400 722 
Q 2759 722 2948 984 
Q 3138 1247 3138 1747 
Q 3138 2247 2948 2509 
Q 2759 2772 2400 2772 
z
" transform="scale(0.015625)"/>
      <path id="DejaVuSans-Bold-32" d="M 1844 884 
L 3897 884 
L 3897 0 
L 506 0 
L 506 884 
L 2209 2388 
Q 2438 2594 2547 2791 
Q 2656 2988 2656 3200 
Q 2656 3528 2436 3728 
Q 2216 3928 1850 3928 
Q 1569 3928 1234 3808 
Q 900 3688 519 3450 
L 519 4475 
Q 925 4609 1322 4679 
Q 1719 4750 2100 4750 
Q 2938 4750 3402 4381 
Q 3866 4013 3866 3353 
Q 3866 2972 3669 2642 
Q 3472 2313 2841 1759 
L 1844 884 
z
" transform="scale(0.015625)"/>
      <path id="DejaVuSans-Bold-30" d="M 2944 2338 
Q 2944 3213 2780 3570 
Q 2616 3928 2228 3928 
Q 1841 3928 1675 3570 
Q 1509 3213 1509 2338 
Q 1509 1453 1675 1090 
Q 1841 728 2228 728 
Q 2613 728 2778 1090 
Q 2944 1453 2944 2338 
z
M 4147 2328 
Q 4147 1169 3647 539 
Q 3147 -91 2228 -91 
Q 1306 -91 806 539 
Q 306 1169 306 2328 
Q 306 3491 806 4120 
Q 1306 4750 2228 4750 
Q 3147 4750 3647 4120 
Q 4147 3491 4147 2328 
z
" transform="scale(0.015625)"/>
      <path id="DejaVuSans-Bold-50" d="M 588 4666 
L 2584 4666 
Q 3475 4666 3951 4270 
Q 4428 3875 4428 3144 
Q 4428 2409 3951 2014 
Q 3475 1619 2584 1619 
L 1791 1619 
L 1791 0 
L 588 0 
L 588 4666 
z
M 1791 3794 
L 1791 2491 
L 2456 2491 
Q 2806 2491 2997 2661 
Q 3188 2831 3188 3144 
Q 3188 3456 2997 3625 
Q 2806 3794 2456 3794 
L 1791 3794 
z
" transform="scale(0.015625)"/>
      <path id="DejaVuSans-Bold-35" d="M 678 4666 
L 3669 4666 
L 3669 3781 
L 1638 3781 
L 1638 3059 
Q 1775 3097 1914 3117 
Q 2053 3138 2203 3138 
Q 3056 3138 3531 2711 
Q 4006 2284 4006 1522 
Q 4006 766 3489 337 
Q 2972 -91 2053 -91 
Q 1656 -91 1267 -14 
Q 878 63 494 219 
L 494 1166 
Q 875 947 1217 837 
Q 1559 728 1863 728 
Q 2300 728 2551 942 
Q 2803 1156 2803 1522 
Q 2803 1891 2551 2103 
Q 2300 2316 1863 2316 
Q 1603 2316 1309 2248 
Q 1016 2181 678 2041 
L 678 4666 
z
" transform="scale(0.015625)"/>
      <path id="DejaVuSans-Bold-33" d="M 2981 2516 
Q 3453 2394 3698 2092 
Q 3944 1791 3944 1325 
Q 3944 631 3412 270 
Q 2881 -91 1863 -91 
Q 1503 -91 1142 -33 
Q 781 25 428 141 
L 428 1069 
Q 766 900 1098 814 
Q 1431 728 1753 728 
Q 2231 728 2486 893 
Q 2741 1059 2741 1369 
Q 2741 1688 2480 1852 
Q 2219 2016 1709 2016 
L 1228 2016 
L 1228 2791 
L 1734 2791 
Q 2188 2791 2409 2933 
Q 2631 3075 2631 3366 
Q 2631 3634 2415 3781 
Q 2200 3928 1806 3928 
Q 1516 3928 1219 3862 
Q 922 3797 628 3669 
L 628 4550 
Q 984 4650 1334 4700 
Q 1684 4750 2022 4750 
Q 2931 4750 3382 4451 
Q 3834 4153 3834 3553 
Q 3834 3144 3618 2883 
Q 3403 2622 2981 2516 
z
" transform="scale(0.015625)"/>
      <path id="DejaVuSans-Bold-73" d="M 3272 3391 
L 3272 2541 
Q 2913 2691 2578 2766 
Q 2244 2841 1947 2841 
Q 1628 2841 1473 2761 
Q 1319 2681 1319 2516 
Q 1319 2381 1436 2309 
Q 1553 2238 1856 2203 
L 2053 2175 
Q 2913 2066 3209 1816 
Q 3506 1566 3506 1031 
Q 3506 472 3093 190 
Q 2681 -91 1863 -91 
Q 1516 -91 1145 -36 
Q 775 19 384 128 
L 384 978 
Q 719 816 1070 734 
Q 1422 653 1784 653 
Q 2113 653 2278 743 
Q 2444 834 2444 1013 
Q 2444 1163 2330 1236 
Q 2216 1309 1875 1350 
L 1678 1375 
Q 931 1469 631 1722 
Q 331 1975 331 2491 
Q 331 3047 712 3315 
Q 1094 3584 1881 3584 
Q 2191 3584 2531 3537 
Q 2872 3491 3272 3391 
z
" transform="scale(0.015625)"/>
      <path id="DejaVuSans-Bold-62" d="M 2400 722 
Q 2759 722 2948 984 
Q 3138 1247 3138 1747 
Q 3138 2247 2948 2509 
Q 2759 2772 2400 2772 
Q 2041 2772 1848 2508 
Q 1656 2244 1656 1747 
Q 1656 1250 1848 986 
Q 2041 722 2400 722 
z
M 1656 2988 
Q 1888 3294 2169 3439 
Q 2450 3584 2816 3584 
Q 3463 3584 3878 3070 
Q 4294 2556 4294 1747 
Q 4294 938 3878 423 
Q 3463 -91 2816 -91 
Q 2450 -91 2169 54 
Q 1888 200 1656 506 
L 1656 0 
L 538 0 
L 538 4863 
L 1656 4863 
L 1656 2988 
z
" transform="scale(0.015625)"/>
     </defs>
     <use xlink:href="#DejaVuSans-Bold-54"/>
     <use xlink:href="#DejaVuSans-Bold-6f" transform="translate(54.962891 0)"/>
     <use xlink:href="#DejaVuSans-Bold-70" transform="translate(123.664062 0)"/>
     <use xlink:href="#DejaVuSans-Bold-20" transform="translate(195.246094 0)"/>
     <use xlink:href="#DejaVuSans-Bold-32" transform="translate(230.060547 0)"/>
     <use xlink:href="#DejaVuSans-Bold-30" transform="translate(299.640625 0)"/>
     <use xlink:href="#DejaVuSans-Bold-20" transform="translate(369.220703 0)"/>
     <use xlink:href="#DejaVuSans-Bold-54" transform="translate(404.035156 0)"/>
     <use xlink:href="#DejaVuSans-Bold-50" transform="translate(472.248047 0)"/>
     <use xlink:href="#DejaVuSans-Bold-35" transform="translate(545.539062 0)"/>
     <use xlink:href="#DejaVuSans-Bold-33" transform="translate(615.119141 0)"/>
     <use xlink:href="#DejaVuSans-Bold-20" transform="translate(684.699219 0)"/>
     <use xlink:href="#DejaVuSans-Bold-56" transform="translate(719.513672 0)"/>
     <use xlink:href="#DejaVuSans-Bold-61" transform="translate(791.40625 0)"/>
     <use xlink:href="#DejaVuSans-Bold-72" transform="translate(858.886719 0)"/>
     <use xlink:href="#DejaVuSans-Bold-69" transform="translate(908.203125 0)"/>
     <use xlink:href="#DejaVuSans-Bold-61" transform="translate(942.480469 0)"/>
     <use xlink:href="#DejaVuSans-Bold-6e" transform="translate(1009.960938 0)"/>
     <use xlink:href="#DejaVuSans-Bold-74" transform="translate(1081.152344 0)"/>
     <use xlink:href="#DejaVuSans-Bold-73" transform="translate(1128.955078 0)"/>
     <use xlink:href="#DejaVuSans-Bold-20" transform="translate(1188.476562 0)"/>
     <use xlink:href="#DejaVuSans-Bold-62" transform="translate(1223.291016 0)"/>
     <use xlink:href="#DejaVuSans-Bold-79" transform="translate(1294.873047 0)"/>
     <use xlink:href="#DejaVuSans-Bold-20" transform="translate(1360.058594 0)"/>
     <use xlink:href="#DejaVuSans-Bold-41" transform="translate(1394.873047 0)"/>
     <use xlink:href="#DejaVuSans-Bold-76" transform="translate(1468.640625 0)"/>
     <use xlink:href="#DejaVuSans-Bold-65" transform="translate(1533.826172 0)"/>
     <use xlink:href="#DejaVuSans-Bold-72" transform="translate(1601.648438 0)"/>
     <use xlink:href="#DejaVuSans-Bold-61" transform="translate(1650.964844 0)"/>
     <use xlink:href="#DejaVuSans-Bold-67" transform="translate(1718.445312 0)"/>
     <use xlink:href="#DejaVuSans-Bold-65" transform="translate(1790.027344 0)"/>
     <use xlink:href="#DejaVuSans-Bold-20" transform="translate(1857.849609 0)"/>
     <use xlink:href="#DejaVuSans-Bold-41" transform="translate(1892.664062 0)"/>
     <use xlink:href="#DejaVuSans-Bold-6c" transform="translate(1970.056641 0)"/>
     <use xlink:href="#DejaVuSans-Bold-6c" transform="translate(2004.333984 0)"/>
     <use xlink:href="#DejaVuSans-Bold-65" transform="translate(2038.611328 0)"/>
     <use xlink:href="#DejaVuSans-Bold-6c" transform="translate(2106.433594 0)"/>
     <use xlink:href="#DejaVuSans-Bold-65" transform="translate(2140.710938 0)"/>
     <use xlink:href="#DejaVuSans-Bold-20" transform="translate(2208.533203 0)"/>
     <use xlink:href="#DejaVuSans-Bold-46" transform="translate(2243.347656 0)"/>
     <use xlink:href="#DejaVuSans-Bold-72" transform="translate(2305.283203 0)"/>
     <use xlink:href="#DejaVuSans-Bold-65" transform="translate(2354.599609 0)"/>
     <use xlink:href="#DejaVuSans-Bold-71" transform="translate(2422.421875 0)"/>
     <use xlink:href="#DejaVuSans-Bold-75" transform="translate(2494.003906 0)"/>
     <use xlink:href="#DejaVuSans-Bold-65" transform="translate(2565.195312 0)"/>
     <use xlink:href="#DejaVuSans-Bold-6e" transform="translate(2633.017578 0)"/>
     <use xlink:href="#DejaVuSans-Bold-63" transform="translate(2704.208984 0)"/>
     <use xlink:href="#DejaVuSans-Bold-79" transform="translate(2763.486328 0)"/>
     <use xlink:href="#DejaVuSans-Bold-20" transform="translate(2828.671875 0)"/>
     <use xlink:href="#DejaVuSans-Bold-41" transform="translate(2863.486328 0)"/>
     <use xlink:href="#DejaVuSans-Bold-63" transform="translate(2940.878906 0)"/>
     <use xlink:href="#DejaVuSans-Bold-72" transform="translate(3000.15625 0)"/>
     <use xlink:href="#DejaVuSans-Bold-6f" transform="translate(3049.472656 0)"/>
     <use xlink:href="#DejaVuSans-Bold-73" transform="translate(3118.173828 0)"/>
     <use xlink:href="#DejaVuSans-Bold-73" transform="translate(3177.695312 0)"/>
     <use xlink:href="#DejaVuSans-Bold-20" transform="translate(3237.216797 0)"/>
     <use xlink:href="#DejaVuSans-Bold-50" transform="translate(3272.03125 0)"/>
     <use xlink:href="#DejaVuSans-Bold-6f" transform="translate(3345.322266 0)"/>
     <use xlink:href="#DejaVuSans-Bold-70" transform="translate(3414.023438 0)"/>
     <use xlink:href="#DejaVuSans-Bold-75" transform="translate(3485.605469 0)"/>
     <use xlink:href="#DejaVuSans-Bold-6c" transform="translate(3556.796875 0)"/>
     <use xlink:href="#DejaVuSans-Bold-61" transform="translate(3591.074219 0)"/>
     <use xlink:href="#DejaVuSans-Bold-74" transform="translate(3658.554688 0)"/>
     <use xlink:href="#DejaVuSans-Bold-69" transform="translate(3706.357422 0)"/>
     <use xlink:href="#DejaVuSans-Bold-6f" transform="translate(3740.634766 0)"/>
     <use xlink:href="#DejaVuSans-Bold-6e" transform="translate(3809.335938 0)"/>
     <use xlink:href="#DejaVuSans-Bold-73" transform="translate(3880.527344 0)"/>
    </g>
   </g>
  </g>
 </g>
 <defs>
  <clipPath id="pe887a263df">
   <rect x="234.477812" y="27.837812" width="469.63" height="493.56"/>
  </clipPath>
 </defs>
</svg>
